# xmcd CD database file
#
# Track frame offsets:
#	150
#	17037
#	41375
#	71120
#	122090
#	142907
#	174032
#	195950
#	220412
#
# Disc length: 3116 seconds
#
# Revision: 0
# Processed by: cddbd v1.5.2PL0 Copyright (c) Steve Scherf et al.
# Submitted via: CDex 1.70beta3
#
DISCID=740c2a09
DTITLE=Sir Charles Thompson Sextet and His Band - Sir Charles Thompson Sextet and His Band
DYEAR=1900
DGENRE=Jazz
TTITLE0=Bop This
TTITLE1=Memories Of You
TTITLE2=Oh Joe!
TTITLE3=For The Ears
TTITLE4=It's The Talk Of The Town
TTITLE5=Fore!
TTITLE6=Dynaflow
TTITLE7=Under The Sweetheart Tree
TTITLE8=Ready For Freddie
EXTD=
EXTT0=
EXTT1=
EXTT2=
EXTT3=
EXTT4=
EXTT5=
EXTT6=
EXTT7=
EXTT8=
PLAYORDER=
